        <svg
          width="30"
          height="30"
          viewBox="0 0 30 30"
          fill="none"
          xmlns="http://www.w3.org/2000/svg"
        >
          <rect
            x="6"
            y="8.5"
            width="18"
            height="17"
            rx="1"
            stroke="#004221"
            stroke-width="2"
            stroke-linejoin="round"
          />
          <path
            d="M6 4.5C5.44772 4.5 5 4.94772 5 5.5C5 6.05228 5.44772 6.5 6 6.5V4.5ZM24 6.5C24.5523 6.5 25 6.05228 25 5.5C25 4.94772 24.5523 4.5 24 4.5V6.5ZM16 4V3H14V4H16ZM6 6.5H15V4.5H6V6.5ZM15 6.5H24V4.5H15V6.5ZM14 4V5.5H16V4H14Z"
            fill="#004221"
          />
          <path d="M15 12.5V20.5" stroke="#004221" stroke-width="2" />
          <path d="M10 12.5V20.5" stroke="#004221" stroke-width="2" />
          <path d="M20 12.5V20.5" stroke="#004221" stroke-width="2" />
        </svg>