<svg width="50" height="50" viewBox="0 0 50 50" fill="none" xmlns="http://www.w3.org/2000/svg">
<rect width="50" height="50" rx="10" fill="#F1FFF8"/>
<path d="M11.7 21C11.7733 21 11.8367 21.0267 11.89 21.08C11.9433 21.1333 11.97 21.1967 11.97 21.27V22.88C11.97 22.9533 11.9433 23.0167 11.89 23.07C11.8367 23.1233 11.7733 23.15 11.7 23.15H9.55V27.73C9.55 27.8033 9.52333 27.8667 9.47 27.92C9.41667 27.9733 9.35333 28 9.28 28H7.22C7.14667 28 7.08333 27.9733 7.03 27.92C6.97667 27.8667 6.95 27.8033 6.95 27.73V23.15H4.8C4.72667 23.15 4.66333 23.1233 4.61 23.07C4.55667 23.0167 4.53 22.9533 4.53 22.88V21.27C4.53 21.1967 4.55667 21.1333 4.61 21.08C4.66333 21.0267 4.72667 21 4.8 21H11.7ZM20.4661 25.11C20.4661 26.13 20.1261 26.8833 19.4461 27.37C18.7728 27.8567 17.8728 28.1 16.7461 28.1C15.6194 28.1 14.7161 27.8567 14.0361 27.37C13.3628 26.8833 13.0261 26.1233 13.0261 25.09V23.91C13.0261 23.23 13.1861 22.6667 13.5061 22.22C13.8328 21.7667 14.2761 21.4333 14.8361 21.22C15.3961 21.0067 16.0328 20.9 16.7461 20.9C17.4594 20.9 18.0928 21.0067 18.6461 21.22C19.2061 21.4333 19.6494 21.7633 19.9761 22.21C20.3028 22.6567 20.4661 23.2167 20.4661 23.89V25.11ZM15.7261 25.3C15.7261 25.5733 15.8161 25.7833 15.9961 25.93C16.1828 26.0767 16.4328 26.15 16.7461 26.15C17.0594 26.15 17.3061 26.0767 17.4861 25.93C17.6728 25.7767 17.7661 25.5633 17.7661 25.29V23.71C17.7661 23.4367 17.6728 23.2267 17.4861 23.08C17.3061 22.9267 17.0594 22.85 16.7461 22.85C16.4328 22.85 16.1828 22.9233 15.9961 23.07C15.8161 23.2167 15.7261 23.4267 15.7261 23.7V25.3ZM27.1622 23.7C27.2355 23.7 27.2989 23.7267 27.3522 23.78C27.4055 23.8333 27.4322 23.8967 27.4322 23.97V25.39C27.4322 25.4633 27.4055 25.5267 27.3522 25.58C27.2989 25.6333 27.2355 25.66 27.1622 25.66H23.3322C23.2589 25.66 23.1955 25.6333 23.1422 25.58C23.0889 25.5267 23.0622 25.4633 23.0622 25.39V23.97C23.0622 23.8967 23.0889 23.8333 23.1422 23.78C23.1955 23.7267 23.2589 23.7 23.3322 23.7H27.1622ZM33.7083 21C34.8349 21 35.7349 21.2433 36.4083 21.73C37.0883 22.2167 37.4283 22.97 37.4283 23.99V25.01C37.4283 26.05 37.0916 26.81 36.4183 27.29C35.7516 27.7633 34.8483 28 33.7083 28H30.5183C30.4449 28 30.3816 27.9733 30.3283 27.92C30.2749 27.8667 30.2483 27.8033 30.2483 27.73V21.27C30.2483 21.1967 30.2749 21.1333 30.3283 21.08C30.3816 21.0267 30.4449 21 30.5183 21H33.7083ZM33.7583 26.05C34.0716 26.05 34.3183 25.9767 34.4983 25.83C34.6849 25.6767 34.7783 25.4633 34.7783 25.19V23.81C34.7783 23.5367 34.6849 23.3267 34.4983 23.18C34.3183 23.0267 34.0716 22.95 33.7583 22.95H32.8483V26.05H33.7583ZM45.9544 25.11C45.9544 26.13 45.6144 26.8833 44.9344 27.37C44.261 27.8567 43.361 28.1 42.2344 28.1C41.1077 28.1 40.2044 27.8567 39.5244 27.37C38.851 26.8833 38.5144 26.1233 38.5144 25.09V23.91C38.5144 23.23 38.6744 22.6667 38.9944 22.22C39.321 21.7667 39.7644 21.4333 40.3244 21.22C40.8844 21.0067 41.521 20.9 42.2344 20.9C42.9477 20.9 43.581 21.0067 44.1344 21.22C44.6944 21.4333 45.1377 21.7633 45.4644 22.21C45.791 22.6567 45.9544 23.2167 45.9544 23.89V25.11ZM41.2144 25.3C41.2144 25.5733 41.3044 25.7833 41.4844 25.93C41.671 26.0767 41.921 26.15 42.2344 26.15C42.5477 26.15 42.7944 26.0767 42.9744 25.93C43.161 25.7767 43.2544 25.5633 43.2544 25.29V23.71C43.2544 23.4367 43.161 23.2267 42.9744 23.08C42.7944 22.9267 42.5477 22.85 42.2344 22.85C41.921 22.85 41.671 22.9233 41.4844 23.07C41.3044 23.2167 41.2144 23.4267 41.2144 23.7V25.3Z" fill="#004221"/>
</svg>